<svg xmlns="http://www.w3.org/2000/svg" width="25" height="23.214" viewBox="0 0 25 23.214">
  <path id="jacket" d="M26.984,22.363,23.288,8.5a2.232,2.232,0,0,0-2.735-1.578l-.489.132a8.3,8.3,0,0,0-1.145-.918,2.726,2.726,0,0,0,.045-.451A2.687,2.687,0,0,0,16.285,3H12.714a2.647,2.647,0,0,0-2.633,3.137,8.376,8.376,0,0,0-1.145.919l-.489-.132A2.241,2.241,0,0,0,5.711,8.5l-3.7,13.859a.446.446,0,0,0,.315.546l.065.018-.223,2.333a.447.447,0,0,0,.328.473l1.723.466a.41.41,0,0,0,.117.016.445.445,0,0,0,.406-.262l.968-2.137.062.017a.451.451,0,0,0,.549-.316L8.25,16.308V22.2a.447.447,0,0,0,.446.446h.446v2.232a.447.447,0,0,0,.446.446H19.41a.447.447,0,0,0,.446-.446V22.642H20.3a.447.447,0,0,0,.446-.446V16.308c.907,3.4,1.925,7.206,1.925,7.209a.454.454,0,0,0,.212.273.526.526,0,0,0,.4.026l.968,2.137a.45.45,0,0,0,.523.246l1.723-.466a.446.446,0,0,0,.328-.473L26.6,22.926l.065-.018a.446.446,0,0,0,.314-.546ZM17.178,4.791a1.789,1.789,0,0,0-.162-.737,1.793,1.793,0,0,1-.73,3.428h-.876l.182-.911A1.792,1.792,0,0,0,17.178,4.791Zm-3.571-.9h1.786a.9.9,0,0,1,.893.9.911.911,0,0,1-.344.7,1.068,1.068,0,0,1-.719.194.446.446,0,0,0-.437.359L14.5,7.481s-.285-1.43-.285-1.432c-.061-.305-.345-.36-.608-.36a.9.9,0,0,1,0-1.8Zm-2.156.522a1.76,1.76,0,0,1,.533-.362,1.785,1.785,0,0,0,1.424,2.518l.181.911h-.875a1.792,1.792,0,0,1-1.786-1.795,1.813,1.813,0,0,1,.522-1.272ZM4.089,25.237,3.1,24.968l.172-1.807,1.57.42Zm9.964-.809H10.035V22.642h4.018Zm0-2.679H9.143V12.965l.493-1.845a.446.446,0,1,0-.862-.23l-3.2,11.962-2.586-.689L6.573,8.736a1.345,1.345,0,0,1,1.64-.95l.73.2a.482.482,0,0,0,.47-.157,7.242,7.242,0,0,1,.981-.821,2.668,2.668,0,0,0,2.32,1.369h1.054l.285,1.392v.447a.428.428,0,0,0-.285.252s-.885,2.443-.885,2.445a1.372,1.372,0,0,0,.331,1.246,1.453,1.453,0,0,0,.838.466Zm-.17-8.184a.565.565,0,0,1-.141-.405l.757-2.094.758,2.094a.565.565,0,0,1-.141.405.99.99,0,0,1-1.233,0Zm5.08,10.862H14.946V22.642h4.018Zm5.946.809-.75-1.656,1.57-.42.172,1.807Zm-1.488-2.385-3.2-11.969a.447.447,0,0,0-.863.23l.495,1.851V21.75H14.946V14.623a1.45,1.45,0,0,0,.838-.466,1.379,1.379,0,0,0,.331-1.246l-.885-2.445a.43.43,0,0,0-.285-.252V9.769l.285-1.394h1.054a2.694,2.694,0,0,0,1.9-.786,2.636,2.636,0,0,0,.424-.582,7.167,7.167,0,0,1,1.015.852.475.475,0,0,0,.438.123l.726-.2a1.339,1.339,0,0,1,1.639.948l3.582,13.43Z" transform="translate(-1.999 -3)" fill="#212121"/>
</svg>
