<svg xmlns="http://www.w3.org/2000/svg" width="17.58" height="17.579" viewBox="0 0 17.58 17.579">
  <path id="Icon_feather-phone-call" data-name="Icon feather-phone-call" d="M13.078,4.558A3.826,3.826,0,0,1,16.1,7.578M13.078,1.5a6.887,6.887,0,0,1,6.09,6.07m-.766,6.1v2.294a1.531,1.531,0,0,1-1.67,1.529,15.178,15.178,0,0,1-6.61-2.347,14.922,14.922,0,0,1-4.6-4.587A15.111,15.111,0,0,1,3.174,3.931,1.53,1.53,0,0,1,4.7,2.265H7A1.531,1.531,0,0,1,8.528,3.579a9.8,9.8,0,0,0,.536,2.148A1.527,1.527,0,0,1,8.72,7.341l-.973.971a12.244,12.244,0,0,0,4.6,4.587l.973-.971a1.534,1.534,0,0,1,1.616-.344,9.851,9.851,0,0,0,2.152.535A1.53,1.53,0,0,1,18.4,13.671Z" transform="translate(-2.417 -0.672)" fill="none" stroke="#212121" stroke-linecap="round" stroke-linejoin="round" stroke-width="1.5"/>
</svg>
