<svg xmlns="http://www.w3.org/2000/svg" width="25.004" height="25" viewBox="0 0 25.004 25">
  <g id="_14-eco_food" data-name="14-eco food" transform="translate(0 -0.004)">
    <path id="Path_38" data-name="Path 38" d="M19.39,7.655a12.943,12.943,0,0,0,1.961-.267,3.322,3.322,0,0,0,1.365-2.679,3.771,3.771,0,0,0-3.53-3.53A18.6,18.6,0,0,1,15.009.03a.389.389,0,0,0-.526.31c-.024.165-.561,4.1,1.624,6.146A4.624,4.624,0,0,0,19.39,7.655ZM15.217.94a16.2,16.2,0,0,0,3.969,1.024,2.977,2.977,0,0,1,2.745,2.745,2.534,2.534,0,0,1-.749,1.808l-3.275-3.64a.393.393,0,1,0-.584.526L20.379,6.8a4.379,4.379,0,0,1-3.734-.882C15.174,4.54,15.151,2,15.217.94Z" transform="translate(-8.791)"/>
    <path id="Path_39" data-name="Path 39" d="M34.54,17.662a2,2,0,0,0,1.93,1.71c1.7,0,3.53-.859,3.53-2.745a19.61,19.61,0,0,1,.392-3.059.392.392,0,0,0-.263-.451c-.133-.043-1.4-.392-3.828.808a3.353,3.353,0,0,0-1.761,3.738Zm2.09-3.036a6.373,6.373,0,0,1,2.808-.82h.094a18.269,18.269,0,0,0-.318,2.8c0,1.349-1.424,1.961-2.745,1.961a1.039,1.039,0,0,1-.278-.035l1.773-2.483a.392.392,0,0,0-.639-.455L35.564,18.07a1.985,1.985,0,0,1-.263-.6,2.573,2.573,0,0,1,1.33-2.84Z" transform="translate(-21.013 -7.948)"/>
    <path id="Path_40" data-name="Path 40" d="M27.157,36.39h0c0-.91-1.326-1.51-4.231-1.938a.4.4,0,0,0-.117.784c3.509.522,3.568,1.177,3.568,1.177h0c0,.533-2.761,1.569-7.8,1.569s-7.8-1.035-7.8-1.569h0c0-.533,2.753-1.569,7.8-1.569a.392.392,0,0,0,0-.784c-4.118,0-8.544.733-8.579,2.353h0v.024c0,.482.3,9.366,8.579,9.366s8.579-8.884,8.579-9.389V36.39Zm-8.579,2.353c3.022,0,6.212-.392,7.709-1.239-.039.275-.09.592-.16.93-.32.165-2.34,1.094-7.549,1.094s-7.222-.93-7.549-1.094c-.07-.337-.121-.655-.16-.93C12.367,38.351,15.557,38.743,18.579,38.743Zm0,6.275a6.914,6.914,0,0,1-6.8-4.259,10.849,10.849,0,0,1-.511-1.377,22.137,22.137,0,0,0,7.311.93,22.137,22.137,0,0,0,7.311-.93,10.85,10.85,0,0,1-.511,1.377A6.914,6.914,0,0,1,18.579,45.018Z" transform="translate(-6.078 -20.799)"/>
    <path id="Path_41" data-name="Path 41" d="M54.35,22C53.051,22,52,23.408,52,25.138a3.444,3.444,0,0,0,1.177,2.722V37.3a1.177,1.177,0,1,0,2.353,0V27.86A3.444,3.444,0,0,0,56.7,25.138C56.7,23.408,55.648,22,54.35,22Zm.58,5.318a.392.392,0,0,0-.188.333V37.3a.392.392,0,1,1-.784,0V27.652a.392.392,0,0,0-.188-.333,2.561,2.561,0,0,1-.988-2.181c0-1.275.718-2.353,1.569-2.353s1.569,1.079,1.569,2.353A2.561,2.561,0,0,1,54.93,27.318Z" transform="translate(-31.701 -13.469)"/>
    <path id="Path_42" data-name="Path 42" d="M4.706,26.314V22.392a.392.392,0,1,0-.784,0v2.353H2.745V22.392a.392.392,0,1,0-.784,0v2.353H.784V22.392a.392.392,0,1,0-.784,0v3.922a1.569,1.569,0,0,0,1.177,1.518V37.3a1.177,1.177,0,1,0,2.353,0V27.832A1.569,1.569,0,0,0,4.706,26.314Zm-.784,0a.784.784,0,0,1-.784.784.392.392,0,0,0-.392.392V37.3a.392.392,0,1,1-.784,0V27.491a.392.392,0,0,0-.392-.392.784.784,0,0,1-.784-.784V25.53H3.922Z" transform="translate(0 -13.469)"/>
    <path id="Path_43" data-name="Path 43" d="M25.852,23.985l-1.569.392a.392.392,0,0,0-.3.471l.392,1.961a.392.392,0,0,0,.227.278.353.353,0,0,0,.165.035.392.392,0,0,0,.2-.055l1.961-1.177a.392.392,0,0,0,.126-.553l-.784-1.177A.392.392,0,0,0,25.852,23.985Zm-.808,2.122-.208-1.047.937-.235.392.6Z" transform="translate(-14.614 -14.612)"/>
    <path id="Path_44" data-name="Path 44" d="M26,38.177A1.177,1.177,0,1,0,27.177,37,1.177,1.177,0,0,0,26,38.177Zm1.569,0a.392.392,0,1,1-.392-.392A.392.392,0,0,1,27.569,38.177Z" transform="translate(-15.847 -22.549)"/>
    <path id="Path_45" data-name="Path 45" d="M35.961,32H34.392a.392.392,0,0,0-.392.392v2.353a.392.392,0,0,0,.392.392h.063l2.353-.392a.4.4,0,0,0,.3-.533l-.784-1.961A.392.392,0,0,0,35.961,32Zm-1.177,2.283v-1.5h.91l.506,1.263Z" transform="translate(-20.725 -19.504)"/>
    <path id="Path_46" data-name="Path 46" d="M20.908,53.377A3.392,3.392,0,0,1,18.8,51.291a.392.392,0,0,0-.761.192,4.2,4.2,0,0,0,2.589,2.624.39.39,0,0,0,.278-.73Z" transform="translate(-10.99 -31.091)"/>
    <rect id="Rectangle_29" data-name="Rectangle 29" transform="translate(10.956 23.008)"/>
  </g>
</svg>
