<svg xmlns="http://www.w3.org/2000/svg" width="25.006" height="25" viewBox="0 0 25.006 25">
  <g id="Page-1" transform="translate(0.001)">
    <g id="_027---Health" data-name="027---Health" transform="translate(-0.001)">
      <path id="Shape" d="M7.244,38.4h3.747a.833.833,0,0,0,.833-.828v-.116a21.428,21.428,0,0,0-.117-3.133,4.083,4.083,0,0,0-1.462-2.4c-.06-.042-.6-.4-2.868-1.907l-2.256-1.5a1.4,1.4,0,0,0-1.166-.169c-.087-.825-.133-1.244-.328-3.037l-.132-1.2a1.266,1.266,0,0,0-.521-.88,1.231,1.231,0,0,0-.987-.2A1.291,1.291,0,0,0,1,24.314c.027,3.226.027,3.268.042,4.24l.017,1.569a4.093,4.093,0,0,0,.528,2.035,5.116,5.116,0,0,0,1.345,1.475l.279.236c1.148.986,2.273,1.95,3.057,2.614a.412.412,0,0,1,.145.316v.771a.833.833,0,0,0,.833.833ZM3.751,33.236,3.467,33a4.355,4.355,0,0,1-1.156-1.246,3.289,3.289,0,0,1-.421-1.636l-.017-1.569c-.012-.972-.012-1.014-.042-4.237a.462.462,0,0,1,.328-.466.455.455,0,0,1,.092-.01.405.405,0,0,1,.236.077.433.433,0,0,1,.178.3l.131,1.2c.231,2.119.252,2.317.381,3.539a1.393,1.393,0,0,0,.338,1.839l4.362,3.3a.416.416,0,1,0,.5-.664l-4.36-3.3a.561.561,0,0,1-.112-.771.394.394,0,0,0,.054-.069.57.57,0,0,1,.7-.062l2.256,1.5,2.822,1.873a3.286,3.286,0,0,1,1.15,1.9,22.455,22.455,0,0,1,.1,2.967v.114H7.244V36.8a1.244,1.244,0,0,0-.439-.95c-.783-.664-1.907-1.627-3.054-2.612Z" transform="translate(-0.999 -13.402)"/>
      <path id="Shape-2" data-name="Shape" d="M44.82,23.026a1.231,1.231,0,0,0-.987.2,1.268,1.268,0,0,0-.521.884l-.089.807c-.233,2.132-.278,2.549-.372,3.433a1.388,1.388,0,0,0-1.166.167L39.352,30.07c-2.206,1.465-2.731,1.812-2.8,1.866A4.061,4.061,0,0,0,35.1,34.322a21.229,21.229,0,0,0-.119,3.136v.116a.833.833,0,0,0,.833.828H39.56a.833.833,0,0,0,.833-.833V36.8a.413.413,0,0,1,.144-.316c.784-.666,1.909-1.628,3.057-2.614l.28-.237a5.11,5.11,0,0,0,1.347-1.473,4.091,4.091,0,0,0,.528-2.035l.018-1.567c.012-.974.012-1.014.042-4.242A1.291,1.291,0,0,0,44.82,23.026Zm.115,5.519-.019,1.567a3.289,3.289,0,0,1-.421,1.637,4.354,4.354,0,0,1-1.154,1.245l-.286.242c-1.147.985-2.271,1.947-3.054,2.612a1.244,1.244,0,0,0-.438.95v.771l-3.747,0v-.116a22.208,22.208,0,0,1,.1-2.97A3.267,3.267,0,0,1,37.052,32.6c.068-.048.911-.608,2.761-1.835l2.331-1.548a.547.547,0,0,1,.3-.091.572.572,0,0,1,.4.167.427.427,0,0,0,.049.06.557.557,0,0,1-.111.769l-4.363,3.3a.416.416,0,0,0,.5.664l4.364-3.3a1.388,1.388,0,0,0,.336-1.839c.137-1.291.153-1.439.424-3.93l.087-.8a.433.433,0,0,1,.178-.3.4.4,0,0,1,.328-.067.462.462,0,0,1,.329.466c-.027,3.225-.028,3.265-.04,4.238Z" transform="translate(-20.804 -13.402)"/>
      <path id="Shape-3" data-name="Shape" d="M27.506,8.742a8.753,8.753,0,1,0-8.753,8.742A8.748,8.748,0,0,0,27.506,8.742Zm-16.673,0a7.92,7.92,0,1,1,7.92,7.91A7.915,7.915,0,0,1,10.834,8.742Z" transform="translate(-6.253)"/>
      <path id="Shape-4" data-name="Shape" d="M23.923,17.24V14.326a.417.417,0,0,1,.417-.416H27.26a1.25,1.25,0,0,0,1.251-1.249v-.833a1.25,1.25,0,0,0-1.251-1.249H24.34a.417.417,0,0,1-.417-.416V7.249A1.25,1.25,0,0,0,22.672,6h-.834a1.25,1.25,0,0,0-1.251,1.249v2.914a.417.417,0,0,1-.417.416H17.251A1.25,1.25,0,0,0,16,11.828v.833a1.25,1.25,0,0,0,1.251,1.249H20.17a.417.417,0,0,1,.417.416V17.24a1.25,1.25,0,0,0,1.251,1.249h.834A1.25,1.25,0,0,0,23.923,17.24Zm-2.5,0V14.326a1.25,1.25,0,0,0-1.251-1.249H17.251a.417.417,0,0,1-.417-.416v-.833a.417.417,0,0,1,.417-.416H20.17a1.25,1.25,0,0,0,1.251-1.249V7.249a.417.417,0,0,1,.417-.416h.834a.417.417,0,0,1,.417.416v2.914a1.25,1.25,0,0,0,1.251,1.249H27.26a.417.417,0,0,1,.417.416v.833a.417.417,0,0,1-.417.416H24.34a1.25,1.25,0,0,0-1.251,1.249V17.24a.417.417,0,0,1-.417.416h-.834A.417.417,0,0,1,21.421,17.24Z" transform="translate(-9.755 -3.502)"/>
    </g>
  </g>
</svg>
