<svg xmlns="http://www.w3.org/2000/svg" width="35.766" height="30.236" viewBox="0 0 35.766 30.236">
  <g id="external" transform="translate(0.125 -7.899)">
    <path id="Path_198" data-name="Path 198" d="M58.813,60.9a.554.554,0,0,0-.784,0L52.9,66.029a.554.554,0,0,0,.784.784l5.133-5.133a.554.554,0,0,0,0-.784Z" transform="translate(-38.096 -38.052)" fill="#afafaf" stroke="#afafaf" stroke-width="0.25"/>
    <path id="Path_199" data-name="Path 199" d="M60.785,50.759a2.928,2.928,0,0,0-.809,1.557.555.555,0,0,0,1.091.2,1.823,1.823,0,0,1,.507-.967l1.914-1.914A1.843,1.843,0,0,1,66.1,52.241l-1.914,1.914a1.823,1.823,0,0,1-.967.507.551.551,0,0,0,.186,1.083,2.925,2.925,0,0,0,1.562-.809l1.914-1.911A2.953,2.953,0,1,0,62.7,48.851Z" transform="translate(-43.32 -28.841)" fill="#afafaf" stroke="#afafaf" stroke-width="0.25"/>
    <path id="Path_200" data-name="Path 200" d="M43.535,69.587a1.823,1.823,0,0,1,.967-.507.554.554,0,0,0-.2-1.086,2.925,2.925,0,0,0-1.557.809l-1.914,1.911a2.953,2.953,0,0,0,4.177,4.174l1.914-1.909a2.928,2.928,0,0,0,.809-1.557.555.555,0,0,0-1.091-.2,1.823,1.823,0,0,1-.507.967L44.222,74.1A1.843,1.843,0,0,1,41.616,71.5Z" transform="translate(-28.874 -43.293)" fill="#afafaf" stroke="#afafaf" stroke-width="0.25"/>
    <path id="Path_201" data-name="Path 201" d="M76,16.907v.277a.554.554,0,1,0,1.108,0v-.277a4.432,4.432,0,0,1,4.415-4.432h3.105L82.26,14.852a.554.554,0,1,0,.784.781l3.324-3.324a.554.554,0,0,0,0-.781L83.044,8.2a.554.554,0,0,0-.784.781l2.368,2.382H81.523A5.54,5.54,0,0,0,76,16.907Z" transform="translate(-54.888)" fill="#afafaf" stroke="#afafaf" stroke-width="0.25"/>
    <path id="Path_202" data-name="Path 202" d="M34.961,51.988H32.1a1.641,1.641,0,0,0,.092-.539v-17.8A1.665,1.665,0,0,0,30.538,32a.555.555,0,0,0,0,1.11.555.555,0,0,1,.538.539v17.8a.555.555,0,0,1-.538.539H4.978a.555.555,0,0,1-.538-.536v-17.8a.555.555,0,0,1,.538-.539H19.645a.555.555,0,0,0,0-1.11H4.978A1.665,1.665,0,0,0,3.33,33.649v17.8a1.641,1.641,0,0,0,.092.539H.555A.555.555,0,0,0,0,52.54v.139a2.615,2.615,0,0,0,2.359,2.64h30.8a2.615,2.615,0,0,0,2.359-2.637v-.139a.555.555,0,0,0-.555-.555Zm-1.8,2.221H2.359A1.432,1.432,0,0,1,1.174,53.1H34.343a1.432,1.432,0,0,1-1.185,1.11Z" transform="translate(0 -17.309)" fill="#afafaf" stroke="#afafaf" stroke-width="0.25"/>
  </g>
</svg>
