<svg xmlns="http://www.w3.org/2000/svg" width="12.959" height="18.25" viewBox="0 0 12.959 18.25">
  <g id="pin" transform="translate(0.125 0.125)">
    <path id="Path_51" data-name="Path 51" d="M16.853,9.631a3.3,3.3,0,0,0-3.07-3.489,3.3,3.3,0,0,0-3.07,3.489,3.3,3.3,0,0,0,3.07,3.488A3.3,3.3,0,0,0,16.853,9.631Zm-4.978,0a2.051,2.051,0,0,1,1.908-2.169,2.051,2.051,0,0,1,1.909,2.169A2.051,2.051,0,0,1,13.784,11.8,2.053,2.053,0,0,1,11.875,9.631Z" transform="translate(-7.429 -3.214)" fill="#212121" stroke="#212121" stroke-width="0.25"/>
    <path id="Path_52" data-name="Path 52" d="M14.715,13.306l.149-.18c.347-.426.737-.843,1.114-1.246l.372-.4a6.257,6.257,0,1,0-9.186,0l.382.414c.392.42.8.857,1.161,1.305l.088.108c-2.119.486-3.4,1.47-3.4,2.669,0,1.947,3.274,3,6.355,3s6.355-1.05,6.355-3C18.109,14.778,16.833,13.795,14.715,13.306Zm-6.289-2.23-.379-.41a5.043,5.043,0,0,1,3.109-8.44,5.269,5.269,0,0,1,.609-.038,5,5,0,0,1,3.353,1.279,5.05,5.05,0,0,1,.352,7.194l-.366.393c-.391.42-.8.85-1.168,1.307l-2.18,2.669L9.636,12.44C9.249,11.964,8.831,11.513,8.426,11.077Zm3.329,6.7c-3.147,0-5.156-1.065-5.156-1.8,0-.558,1.143-1.287,3.06-1.615l1.631,1.995a.6.6,0,0,0,.928,0l1.634-1.995c1.918.329,3.057,1.058,3.057,1.615C16.91,16.711,14.9,17.776,11.755,17.776Z" transform="translate(-5.4 -0.975)" fill="#212121" stroke="#212121" stroke-width="0.25"/>
  </g>
</svg>
