<svg xmlns="http://www.w3.org/2000/svg" width="16" height="16" viewBox="0 0 16 16">
  <g id="share_2_" data-name="share (2)" transform="translate(-5 -5)">
    <path id="Path_138" data-name="Path 138" d="M20.273,12.273a.727.727,0,0,0-.727.727v5.424a1.122,1.122,0,0,1-1.121,1.121H7.576a1.122,1.122,0,0,1-1.121-1.121V7.576A1.122,1.122,0,0,1,7.576,6.455H13A.727.727,0,1,0,13,5H7.576A2.579,2.579,0,0,0,5,7.576V18.424A2.579,2.579,0,0,0,7.576,21H18.424A2.579,2.579,0,0,0,21,18.424V13A.727.727,0,0,0,20.273,12.273Z" fill="#fff"/>
    <path id="Path_139" data-name="Path 139" d="M23,5H18.636a.727.727,0,0,0,0,1.455h2.608l-6.031,6.031a.727.727,0,1,0,1.028,1.028l6.031-6.031v2.608a.727.727,0,1,0,1.455,0V5.727A.727.727,0,0,0,23,5Z" transform="translate(-2.727)" fill="#fff"/>
  </g>
</svg>
