<svg xmlns="http://www.w3.org/2000/svg" width="35.293" height="35.293" viewBox="0 0 35.293 35.293">
  <g id="start-up_1_" data-name="start-up (1)" transform="translate(0.125 0.169)">
    <path id="Path_193" data-name="Path 193" d="M54.725,1.218a.683.683,0,0,0-.491-.491,22.878,22.878,0,0,0-19.69,4.052,7.754,7.754,0,0,0-8.11,1.828l-4.278,4.278a.684.684,0,0,0,0,.967l4.76,4.76h0l.614.614-.565,4.149a.683.683,0,0,0,.194.576l.5.5-4.084,4.108a.684.684,0,0,0,.97.964l4.081-4.106,3.416,3.416-5.756,5.73a.684.684,0,1,0,.964.969L33.006,27.8l.5.5a.684.684,0,0,0,.483.2.674.674,0,0,0,.092-.006l4.149-.565.614.614h0L43.6,33.3a.684.684,0,0,0,.967,0l4.278-4.278a7.754,7.754,0,0,0,1.828-8.11A22.879,22.879,0,0,0,54.725,1.218ZM27.115,14.877l-3.509-3.509L27.4,7.574a6.391,6.391,0,0,1,5.874-1.739A22.781,22.781,0,0,0,27.115,14.877Zm7.115,12.21-5.864-5.864.379-2.784,8.269,8.269Zm13.649.965-3.795,3.794-3.508-3.509a22.779,22.779,0,0,0,9.041-6.16A6.392,6.392,0,0,1,47.879,28.052Zm-8.291-.812-.081.028L28.184,15.947l.028-.081A21.6,21.6,0,0,1,53.5,1.954,21.6,21.6,0,0,1,39.587,27.24Zm0,0" transform="translate(-20.453)" fill="#fff" stroke="#fff" stroke-width="0.25"/>
    <path id="Path_194" data-name="Path 194" d="M242.221,109.6l-8.985,2.407a.685.685,0,0,0-.307,1.146l1.335,1.335-2.69,2.69a.685.685,0,0,0,.968.968l3.174-3.174a.684.684,0,0,0,0-.968l-.98-.98,6.694-1.794-1.794,6.694-.98-.98a.685.685,0,0,0-.968,0l-5.462,5.463a.685.685,0,0,0,.968.968l4.978-4.979,1.335,1.335a.685.685,0,0,0,1.145-.307l2.407-8.985a.685.685,0,0,0-.838-.839Zm0,0" transform="translate(-215.569 -102.097)" fill="#fff" stroke="#fff" stroke-width="0.25"/>
    <path id="Path_195" data-name="Path 195" d="M6.571,413.283a.684.684,0,0,0-.968,0l-5.4,5.4a.684.684,0,1,0,.968.968l5.4-5.4A.684.684,0,0,0,6.571,413.283Zm0,0" transform="translate(0 -384.854)" fill="#fff" stroke="#fff" stroke-width="0.25"/>
    <path id="Path_196" data-name="Path 196" d="M15.856,414.447a.685.685,0,1,0-.484-.2A.687.687,0,0,0,15.856,414.447Zm0,0" transform="translate(-14.133 -384.85)" fill="#fff" stroke="#fff" stroke-width="0.25"/>
    <path id="Path_197" data-name="Path 197" d="M198.255,251.1l-.006.005a.685.685,0,1,0,.914,1.019l.006-.005a.685.685,0,0,0-.915-1.019Zm0,0" transform="translate(-184.486 -233.769)" fill="#fff" stroke="#fff" stroke-width="0.25"/>
  </g>
</svg>
